# AST/ASF file generated using VICON BodyLanguage
# -----------------------------------------------
:version 1.10
:name VICON
:units
  mass 1.0
  length 0.45
  angle deg
:documentation
   .ast/.asf automatically generated from VICON data using
   VICON BodyBuilder and BodyLanguage model FoxedUp or BRILLIANT.MOD
:root
   order TX TY TZ RX RY RZ
   axis XYZ
   position 0 0 0  
   orientation 0 0 0 
:bonedata
  begin
     id 1 
     name lhipjoint
     direction 0.573633 -0.743009 0.344793 
     length 2.46257 
     axis 0 0 0  XYZ
  end
  begin
     id 2 
     name lfemur
     direction 0.34202 -0.939693 0  
     length 7.3842  
     axis 0 0 20  XYZ
    dof rx ry rz
    limits (-160.0 20.0)
           (-70.0 70.0)
           (-60.0 70.0)
  end
  begin
     id 3 
     name ltibia
     direction 0.34202 -0.939693 0   
     length 7.50407   
     axis 0 0 20   XYZ
    dof rx
    limits (-10.0 170.0)
  end
  begin
     id 4 
     name lfoot
     direction 0.110749 -0.304281 0.946123   
     length 1.95925   
     axis -90 7.62852e-016 20   XYZ
    dof rx rz
    limits (-45.0 90.0)
           (-70.0 20.0)
  end
  begin
     id 5 
     name ltoes
     direction 1.53554e-011 -4.21843e-011 1   
     length 0.978318   
     axis -90 7.62852e-016 20   XYZ
    dof rx
    limits (-90.0 20.0)
  end
  begin
     id 6 
     name rhipjoint
     direction -0.488109 -0.791693 0.367385   
     length 2.31113  
     axis 0 0 0  XYZ 
  end
  begin
     id 7 
     name rfemur
     direction -0.34202 -0.939693 0   
     length 7.40965   
     axis 0 0 -20   XYZ
    dof rx ry rz
    limits (-160.0 20.0)
           (-70.0 70.0)
           (-70.0 60.0)
  end
  begin
     id 8 
     name rtibia
     direction -0.34202 -0.939693 0   
     length 7.55548   
     axis 0 0 -20   XYZ
    dof rx
    limits (-10.0 170.0)
 end
 begin
     id 9 
     name rfoot
     direction -0.127594 -0.350561 0.927808   
     length 2.07199  
     axis -90 -7.62852e-016 -20   XYZ
    dof rx rz
    limits (-45.0 90.0)
           (-20.0 70.0)
  end
  begin
     id 10 
     name rtoes
     direction -1.53542e-011 -4.21909e-011 1   
     length 1.02667   
     axis -90 -7.62852e-016 -20   XYZ
    dof rx
    limits (-90.0 20.0)
  end
  begin
     id 11 
     name lowerback
     direction -0.0103342 0.997298 -0.0727278   
     length 2.02836   
     axis 0 0 0   XYZ
    dof rx ry rz
    limits (-20.0 45.0)
           (-30.0 30.0)
           (-30.0 30.0)
  end
  begin
     id 12 
     name upperback
     direction 0.0171146 0.999786 -0.011606   
     length 2.03179   
     axis 0 0 0   XYZ
    dof rx ry rz
    limits (-20.0 45.0)
           (-30.0 30.0)
           (-30.0 30.0)
  end
  begin
     id 13 
     name thorax
     direction 0.0216927 0.999513 0.0224343   
     length 2.03882   
     axis 0 0 0   XYZ
    dof rx ry rz
    limits (-20.0 45.0)
           (-30.0 30.0)
           (-30.0 30.0)
  end
  begin
     id 14 
     name lowerneck
     direction 0.000989287 0.993907 0.110221   
     length 1.75428   
     axis 0 0 0   XYZ
    dof rx ry rz
    limits (-20.0 45.0)
           (-30.0 30.0)
           (-30.0 30.0)
  end
  begin
     id 15 
     name upperneck
     direction -0.0172474 0.994813 -0.100253   
     length 1.77058   
     axis 0 0 0   XYZ
    dof rx ry rz
    limits (-20.0 45.0)
           (-30.0 30.0)
           (-30.0 30.0)
  end
  begin
     id 16
     name head
     direction -0.00486455 0.99894 -0.0457663  
     length 1.77427  
     axis 0 0 0   XYZ
    dof rx ry rz
    limits (-20.0 45.0)
           (-30.0 30.0)
           (-30.0 30.0)
  end
  begin
     id 17 
     name lclavicle
     direction 0.927314 0.333734 -0.169441  
     length 3.97584  
     axis 0 0 0   XYZ
    dof ry rz
    limits (-20.0 10.0)
           (0.0 20.0)
  end
  begin
     id 18 
     name lhumerus
     direction 1 -4.48965e-011 -3.25313e-028   
     length 4.76468   
     axis 180 -30 -90   XYZ
    dof rx ry rz
    limits (-60.0 90.0)
           (-90.0 90.0)
           (-90.0 90.0)
  end
  begin
     id 19
     name lradius
     direction 1 -4.48969e-011 -2.8465e-028   
     length 3.52712   
     axis -180 -30 -90   XYZ
    dof rx
    limits (-10.0 170.0)
  end
  begin
     id 20
     name lwrist
     direction 1 -4.4896e-011 -7.78665e-028   
     length 1.76356   
     axis 1.91374e-015 90 90   XYZ
    dof ry
    limits (-180.0 0.0)
 end
  begin
     id 21 
     name lhand
     direction 1 -4.48959e-011 -1.55733e-027   
     length 0.859564   
     axis 9.9371e-016 90 90   XYZ
    dof rx rz
    limits (-90.0 90.0)
           (-45.0 45.0)
  end
  begin
     id 22 
     name lfingers
     direction 1 -4.48965e-011 -3.11466e-027   
     length 0.693002   
     axis 1.98742e-015 90 90   XYZ
    dof rx
    limits (0.0 90.0)
  end
  begin
     id 23
     name lthumb
     direction 0.707107 -6.34948e-011 0.707107   
     length 0.995017   
     axis -90 45 2.85299e-015   XYZ
    dof rx rz
    limits (-45.0 45.0)
           (-45.0 45.0)
  end
  begin
     id 24 
     name rclavicle
     direction -0.899388 0.348209 -0.264294   
     length 3.68366  
     axis 0 0 0   XYZ 
    dof ry rz
    limits (-10.0 20.0)
           (-20.0 0.0)
  end
  begin
     id 25 
     name rhumerus
     direction -1 -4.48965e-011 -3.01536e-027  
     length 4.90577   
     axis 180 30 90   XYZ
    dof rx ry rz
    limits (-90.0 60.0)
           (-90.0 90.0)
           (-90.0 90.0)
  end
  begin
     id 26 
     name rradius
     direction -1 -4.48966e-011 3.93291e-027   
     length 3.42692   
     axis -180 30 90   XYZ
    dof rx
    limits (-10.0 170.0)
  end
  begin
     id 27 
     name rwrist
     direction -1 -4.48969e-011 -7.78665e-028   
     length 1.71346   
     axis 1.91374e-015 -90 -90   XYZ
    dof ry
    limits (-180.0 0.0)
  end
  begin
     id 28
     name rhand
     direction -1 -4.48967e-011 -1.55733e-027   
     length 0.740957   
     axis 9.9371e-016 -90 -90   XYZ
    dof rx rz
    limits (-90.0 90.0)
           (-45.0 45.0)
  end
  begin
     id 29
     name rfingers
     direction -1 -4.48949e-011 -3.11466e-027   
     length 0.597378   
     axis 1.98742e-015 -90 -90   XYZ
    dof rx
    limits (0.0 90.0)
  end
  begin
     id 30
     name rthumb
     direction -0.707107 -6.34931e-011 0.707107   
     length 0.857719   
     axis -90 -45 -2.85299e-015   XYZ
    dof rx rz
    limits (-45.0 45.0)
           (-45.0 45.0)
  end
:hierarchy
  begin
    root lhipjoint rhipjoint lowerback
    lhipjoint lfemur
    lfemur ltibia
    ltibia lfoot
    lfoot ltoes
    rhipjoint rfemur
    rfemur rtibia
    rtibia rfoot
    rfoot rtoes
    lowerback upperback
    upperback thorax
    thorax lowerneck lclavicle rclavicle
    lowerneck upperneck
    upperneck head
    lclavicle lhumerus
    lhumerus lradius
    lradius lwrist
    lwrist lhand lthumb
    lhand lfingers
    rclavicle rhumerus
    rhumerus rradius
    rradius rwrist
    rwrist rhand rthumb
    rhand rfingers
  end

#!OML:ASF E:\I on waltz\AllaLogoMonkeySwing\Project 1\Capture day 1\Session 1\Subject1.ASF
:FULLY-SPECIFIED
:DEGREES
96
root 1.23699 17.505 -27.5413 12.8335 5.3182 0.926182
lowerback 11.248 0.218851 -1.22165
upperback -0.803692 0.325941 2.75387
thorax -7.20108 0.265137 3.55074
lowerneck -18.3139 -0.350232 -1.07591
upperneck 12.4193 -0.255136 0.351583
head 6.78648 -0.143382 0.26022
rclavicle -1.13307e-014 -3.57812e-014
rhumerus -44.5399 15.3476 -87.8478
rradius 56.9914
rwrist -5.81615
rhand -9.38418 -32.8975
rfingers 7.12502
rthumb 16.5766 -62.2095
lclavicle -1.13307e-014 -3.57812e-014
lhumerus -47.1341 -3.05341 92.379
lradius 54.8791
lwrist 3.02534
lhand -9.89686 -19.4863
lfingers 7.12502
lthumb 16.083 9.86629
rfemur -7.23839 -5.60533 21.9086
rtibia 32.5797
rfoot -16.5809 -11.7102
rtoes 21.8524
lfemur -11.4298 5.4051 -15.7622
ltibia 37.0794
lfoot -19.4895 -9.86069
ltoes -38.7902
97
root 1.22007 17.9892 -27.078 12.0951 5.85197 1.15614
lowerback 10.1109 0.128596 -0.949282
upperback -1.15094 0.232561 2.5953
thorax -6.91383 0.205278 3.2361
lowerneck -18.3017 -0.533053 -1.31712
upperneck 13.7149 -0.47619 0.553852
head 7.21036 -0.245789 0.341186
rclavicle -8.54774e-015 -1.59028e-015
rhumerus -47.4723 15.7903 -88.1225
rradius 57.2772
rwrist -3.92448
rhand -9.08436 -32.2148
rfingers 7.12502
rthumb 16.8652 -61.5024
lclavicle -8.54774e-015 -1.59028e-015
lhumerus -49.6404 -2.42228 91.2856
lradius 56.0144
lwrist 3.4313
lhand -9.43986 -19.3599
lfingers 7.12502
lthumb 16.523 9.95654
rfemur -4.33664 -6.11546 21.2727
rtibia 30.0035
rfoot -7.81587 -9.12258
rtoes 12.6293
lfemur -7.30864 5.1022 -15.1309
ltibia 31.6065
lfoot -11.5638 -13.5781
ltoes -45.4124
98
root 1.20463 18.5039 -26.6225 11.6672 6.26386 1.33469
lowerback 8.77869 0.0184706 -0.608635
upperback -1.49607 0.112635 2.4186
thorax -6.50991 0.128136 2.8657
lowerneck -18.1834 -0.613072 -1.29624
upperneck 14.8575 -0.568454 0.416807
head 7.56716 -0.304587 0.28253
rclavicle 1.19271e-015 7.95139e-016
rhumerus -49.9358 15.9589 -88.3198
rradius 57.1096
rwrist -2.72238
rhand -9.53433 -31.709
rfingers 7.12502
rthumb 16.432 -61.033
lclavicle 1.19271e-015 7.95139e-016
lhumerus -52.0501 -1.49993 89.809
lradius 57.0518
lwrist 4.00577
lhand -9.1632 -19.0012
lfingers 7.12502
lthumb 16.7893 10.2929
rfemur -3.00975 -5.94189 20.6905
rtibia 28.0078
rfoot 3.37965 -7.44836
rtoes 9.79847
lfemur -3.82428 4.26273 -14.3339
ltibia 25.0681
lfoot 1.79115 -18.5617
ltoes -45.7819
99
root 1.18951 19.0233 -26.1715 11.4565 6.63054 1.35402
lowerback 7.23387 -0.186568 -0.15315
upperback -1.77353 -0.128927 2.33234
thorax -5.90798 -0.0128595 2.53689
lowerneck -18.1449 -0.535541 -1.01604
upperneck 15.942 -0.413911 -0.217672
head 7.91769 -0.281034 0.0441941
rclavicle -1.82882e-014 3.4191e-014
rhumerus -51.9203 16.036 -88.3319
rradius 56.6446
rwrist -2.25285
rhand -10.0076 -31.4692
rfingers 7.12502
rthumb 15.9764 -60.8304
lclavicle -1.82882e-014 3.4191e-014
lhumerus -54.5107 -0.132946 88.0359
lradius 58.1859
lwrist 4.83643
lhand -9.3317 -18.0405
lfingers 7.12502
lthumb 16.6271 11.2672
rfemur -2.7118 -6.80185 20.0631
rtibia 26.7646
rfoot 13.5821 -6.06941
rtoes 7.50891
lfemur -0.800011 3.20789 -13.4831
ltibia 18.8339
lfoot 15.3801 -20.0617
ltoes -48.537
100
root 1.13916 19.5371 -25.791 11.3478 7.10698 -0.19306
lowerback 6.28753 -0.454122 1.35963
upperback -2.16328 -0.330271 2.85293
thorax -5.77592 -0.155459 2.24623
lowerneck -18.5928 -0.459578 -1.70761
upperneck 17.4299 -0.248457 0.463898
head 8.49782 -0.181677 0.405791
rclavicle 7.95139e-016 -2.8625e-014
rhumerus -53.332 16.0866 -87.9082
rradius 55.8382
rwrist -2.72356
rhand -9.96806 -31.4558
rfingers 7.12502
rthumb 16.0144 -60.8139
lclavicle 7.95139e-016 -2.8625e-014
lhumerus -56.6055 2.36318 85.59
lradius 58.591
lwrist 4.94336
lhand -9.36601 -18.2169
lfingers 7.12502
lthumb 16.5941 11.0937
rfemur -3.91436 -6.74115 21.8962
rtibia 27.2046
rfoot 18.0833 -6.49401
rtoes 9.38139
lfemur 0.772448 2.31946 -10.5582
ltibia 14.777
lfoot 21.9084 -19.0958
ltoes -46.8651
101
root 1.11664 19.9698 -25.4049 10.9083 7.55045 1.02328
lowerback 5.66929 -0.731062 0.267724
upperback -2.12785 -0.819079 2.64168
thorax -5.35819 -0.365272 2.68046
lowerneck -15.8694 -0.0956993 -2.6801
upperneck 14.7921 0.184292 1.78293
head 7.1385 0.101592 1.03918
rclavicle 1.78906e-015 -7.95139e-015
rhumerus -54.2812 15.5826 -86.9567
rradius 54.8316
rwrist -3.20055
rhand -10.0632 -31.589
rfingers 7.12502
rthumb 15.9228 -60.9544
lclavicle 1.78906e-015 -7.95139e-015
lhumerus -58.5995 4.48274 83.4282
lradius 59.2788
lwrist 7.20937
lhand -9.36555 -18.5903
lfingers 7.12502
lthumb 16.5945 10.7202
rfemur -4.69436 -7.98423 20.1954
rtibia 28.9642
rfoot 17.9681 -5.78339
rtoes 9.53927
lfemur 2.38628 2.36623 -11.4351
ltibia 14.4528
lfoot 24.5917 -15.6757
ltoes -41.8267
102
root 1.09962 20.322 -25.0727 11.2323 7.35536 3.65251
lowerback 5.06442 -0.881054 -2.30608
upperback -2.29459 -1.24717 1.98507
thorax -5.13145 -0.504214 3.47719
lowerneck -15.1618 0.195353 -2.6559
upperneck 14.4446 0.561668 1.76044
head 6.89501 0.281366 1.0622
rclavicle 1.20265e-014 -3.49861e-014
rhumerus -55.0401 14.5247 -85.7164
rradius 53.8057
rwrist -4.21263
rhand -10.3349 -32.0887
rfingers 7.12502
rthumb 15.6611 -61.4749
lclavicle 1.20265e-014 -3.49861e-014
lhumerus -60.292 6.57503 81.3448
lradius 59.6646
lwrist 8.36121
lhand -11.3222 -18.8738
lfingers 7.12502
lthumb 14.7101 10.5843
rfemur -6.906 -9.03893 16.9483
rtibia 31.9021
rfoot 16.6398 -5.15055
rtoes 10.2949
lfemur 2.46442 2.60372 -14.3466
ltibia 16.5971
lfoot 22.9708 -12.5306
ltoes -42.9309
